<svg width="21" height="19" viewBox="0 0 21 19" fill="white" xmlns="http://www.w3.org/2000/svg">
<path d="M20.1517 8.4093H0.848285C0.379805 8.4093 0 8.89757 0 9.49995C0 10.1023 0.379805 10.5906 0.848285 10.5906H20.1517C20.6202 10.5906 21 10.1023 21 9.49995C21 8.89762 20.6202 8.4093 20.1517 8.4093Z" fill="white"/>
<path d="M20.1517 0.136414H0.848285C0.379805 0.136414 0 0.624734 0 1.22707C0 1.8294 0.379805 2.31772 0.848285 2.31772H20.1517C20.6202 2.31772 21 1.8294 21 1.22707C21 0.624734 20.6202 0.136414 20.1517 0.136414Z" fill="white"/>
<path d="M20.1517 16.6823H0.848285C0.379805 16.6823 0 17.1705 0 17.7729C0 18.3753 0.379805 18.8636 0.848285 18.8636H20.1517C20.6202 18.8636 21 18.3753 21 17.7729C21 17.1705 20.6202 16.6823 20.1517 16.6823Z" fill="white"/>
</svg>
