<svg width="24" height="26" viewBox="0 0 24 26" fill="none" xmlns="http://www.w3.org/2000/svg">
<path d="M23.0443 7.05441L23.0435 7.03418C23.0322 6.78444 23.0246 6.52022 23.0201 6.22624C22.9988 4.79267 21.8592 3.60685 20.4255 3.52671C17.4361 3.35989 15.1236 2.38513 13.1477 0.459216L13.1308 0.443148C12.4863 -0.147777 11.5142 -0.147777 10.8695 0.443148L10.8526 0.459216C8.87672 2.38513 6.5642 3.35989 3.57486 3.52691C2.14128 3.60685 1.00149 4.79267 0.980261 6.22644C0.975897 6.51843 0.968161 6.78265 0.956854 7.03418L0.955664 7.08119C0.897543 10.1294 0.825339 13.9232 2.09447 17.3665C2.79231 19.2601 3.8492 20.9061 5.23556 22.2592C6.81453 23.8001 8.88267 25.0234 11.3825 25.895C11.4638 25.9234 11.5483 25.9464 11.6344 25.9636C11.7558 25.9878 11.878 25.9999 12.0002 25.9999C12.1223 25.9999 12.2447 25.9878 12.3659 25.9636C12.452 25.9464 12.5371 25.9232 12.6189 25.8946C15.1157 25.0214 17.1816 23.7975 18.7592 22.2568C20.145 20.9034 21.2019 19.257 21.9003 17.363C23.1742 13.9093 23.1022 10.1084 23.0443 7.05441ZM20.4689 16.8351C19.1303 20.4644 16.3979 22.9568 12.1154 24.4545C12.1001 24.4596 12.0839 24.4642 12.067 24.4676C12.0228 24.4763 11.9777 24.4763 11.9329 24.4674C11.9162 24.464 11.9 24.4596 11.8849 24.4545C7.59787 22.9596 4.86363 20.4686 3.52606 16.8391C2.35631 13.6651 2.42256 10.1826 2.48108 7.11035L2.48148 7.09329C2.49338 6.82927 2.50131 6.55275 2.50568 6.24886C2.5152 5.61231 3.02222 5.08565 3.65996 5.05015C5.3516 4.95572 6.83774 4.62882 8.20328 4.05079C9.56703 3.47355 10.7782 2.65986 11.9057 1.56331C11.9631 1.51491 12.0374 1.51471 12.0946 1.56331C13.2223 2.65986 14.4335 3.47355 15.797 4.05079C17.1626 4.62882 18.6487 4.95572 20.3406 5.05015C20.9783 5.08565 21.4853 5.61231 21.4946 6.24906C21.4992 6.55454 21.5071 6.83105 21.519 7.09329C21.5774 10.1691 21.642 13.6544 20.4689 16.8351Z" fill="#8C0014"/>
<path d="M12.0001 6.52083C8.42714 6.52083 5.52051 9.42766 5.52051 13.0004C5.52051 16.5733 8.42714 19.4802 12.0001 19.4802C15.5728 19.4802 18.4796 16.5733 18.4796 13.0004C18.4796 9.42766 15.5728 6.52083 12.0001 6.52083ZM12.0001 17.9543C9.2684 17.9543 7.04613 15.7321 7.04613 13.0004C7.04613 10.2687 9.2684 8.04645 12.0001 8.04645C14.7316 8.04645 16.9538 10.2687 16.9538 13.0004C16.9538 15.7321 14.7316 17.9543 12.0001 17.9543Z" fill="#8C0014"/>
<path d="M13.8621 10.9888L10.8525 13.9984L10.0356 13.1815C9.73767 12.8836 9.25465 12.8836 8.95671 13.1815C8.65896 13.4794 8.65896 13.9625 8.95671 14.2602L10.3131 15.6166C10.4621 15.7656 10.6573 15.84 10.8525 15.84C11.0477 15.84 11.2429 15.7656 11.3918 15.6166L14.941 12.0675C15.2387 11.7695 15.2387 11.2865 14.941 10.9888C14.643 10.6906 14.16 10.6906 13.8621 10.9888Z" fill="#8C0014"/>
</svg>
