<svg width="15" height="13" viewBox="0 0 15 13" fill="none" xmlns="http://www.w3.org/2000/svg">
<path d="M5.59957 2.58133C5.94814 2.42672 6.09431 1.98666 5.93689 1.62986L5.38593 0.404832C5.22851 0.0600407 4.84621 -0.0946932 4.50889 0.0600407C3.55314 0.488205 2.73232 1.0472 2.08016 1.72512C1.28183 2.52187 0.742112 3.43766 0.449765 4.44861C0.157418 5.47156 0 6.86298 0 8.6351V12.2864C0 12.6789 0.303591 13 0.674647 13H5.09359C5.46464 13 5.76823 12.6789 5.76823 12.2864V7.61227C5.76823 7.21966 5.46464 6.89866 5.09359 6.89866H2.97969C3.00218 5.6973 3.27204 4.73405 3.76678 4.00843C4.17157 3.42589 4.77875 2.95015 5.59957 2.58133Z" fill="white"/>
<path d="M14.5989 2.57173C14.9481 2.41697 15.0944 1.97651 14.9368 1.61938L14.3848 0.405266C14.2271 0.0600421 13.8441 -0.0947136 13.5061 0.0600421C12.5598 0.488596 11.7486 1.0481 11.0841 1.71474C10.2841 2.52423 9.73225 3.44086 9.43923 4.45272C9.14634 5.45256 9 6.84548 9 8.63113V12.2857C9 12.6786 9.30416 13 9.67592 13H14.1032C14.4749 13 14.7791 12.6786 14.7791 12.2857V7.60736C14.7791 7.2144 14.4749 6.8931 14.1032 6.8931H11.974C11.9966 5.69065 12.2671 4.72652 12.7626 4.00024C13.1682 3.41705 13.7765 2.94088 14.5989 2.57173Z" fill="white"/>
</svg>
